<svg width="39" height="39" fill="none" xmlns="http://www.w3.org/2000/svg"><g clip-path="url(#a)"><path fill-rule="evenodd" clip-rule="evenodd" d="M9.366 12.78c0-.431.35-.78.78-.78h18.708c.43 0 .78.349.78.78v26.114a.78.78 0 0 1-.78.78H10.146a.78.78 0 0 1-.78-.78V12.78Zm2.573 2.26c0-.301.244-.545.545-.545h14.11c.301 0 .545.244.545.545v3.82a.546.546 0 0 1-.545.546h-14.11a.546.546 0 0 1-.545-.546v-3.82Zm.545 6.548a.546.546 0 0 0-.545.546v2.572c0 .302.244.546.545.546h2.573a.546.546 0 0 0 .545-.546v-2.572a.546.546 0 0 0-.545-.546h-2.573Zm-.545 6.392c0-.301.244-.545.545-.545h2.573c.301 0 .545.244.545.545v2.573a.546.546 0 0 1-.545.545h-2.573a.546.546 0 0 1-.545-.545V27.98Zm.545 5.301a.546.546 0 0 0-.545.546v2.572c0 .301.244.546.545.546h2.573a.546.546 0 0 0 .545-.546v-2.572a.546.546 0 0 0-.545-.546h-2.573Zm5.223-11.147c0-.302.245-.546.546-.546h2.572c.302 0 .546.244.546.546v2.572a.546.546 0 0 1-.546.546h-2.572a.546.546 0 0 1-.546-.546v-2.572Zm.546 5.3a.546.546 0 0 0-.546.546v2.573c0 .301.245.545.546.545h2.572a.546.546 0 0 0 .546-.545V27.98a.546.546 0 0 0-.546-.545h-2.572Zm-.546 6.393c0-.302.245-.546.546-.546h2.572c.302 0 .546.244.546.546v2.572a.546.546 0 0 1-.546.546h-2.572a.546.546 0 0 1-.546-.546v-2.572Zm6.314-12.239a.546.546 0 0 0-.545.546v2.572c0 .302.244.546.545.546h2.573a.546.546 0 0 0 .545-.546v-2.572a.546.546 0 0 0-.545-.546H24.02Zm-.545 6.392c0-.301.244-.545.545-.545h2.573c.301 0 .545.244.545.545v2.573a.546.546 0 0 1-.545.545H24.02a.546.546 0 0 1-.545-.545V27.98Zm.545 5.301a.546.546 0 0 0-.545.546v2.572c0 .301.244.546.545.546h2.573a.546.546 0 0 0 .545-.546v-2.572a.546.546 0 0 0-.545-.546H24.02Z" fill="url(#b)"/></g><defs><linearGradient id="b" x1="19.5" y1="12" x2="19.5" y2="39.673" gradientUnits="userSpaceOnUse"><stop stop-color="#A553AD"/><stop offset="1" stop-color="#8333A0"/></linearGradient><clipPath id="a"><path fill="#fff" d="M0 0h39v39H0z"/></clipPath></defs></svg>