<svg width="28" height="47" viewBox="0 0 28 47" fill="none" xmlns="http://www.w3.org/2000/svg">
<path d="M12.6269 33.605C10.8849 32.131 10.0139 30.322 10.0139 28.178C10.0139 26.838 10.3042 25.6097 10.8849 24.493C11.5102 23.3763 12.2695 22.4607 13.1629 21.746C14.0562 21.0313 15.0165 20.2943 16.0439 19.535C17.1159 18.731 18.0985 17.994 18.9919 17.324C19.8852 16.654 20.6222 15.85 21.2029 14.912C21.8282 13.974 22.1409 12.9467 22.1409 11.83C22.1409 10.0433 21.4485 8.56933 20.0639 7.408C18.7239 6.202 16.7809 5.599 14.2349 5.599C9.90221 5.599 6.35121 7.43033 3.58188 11.093L0.231879 7.475C3.76055 2.919 8.60688 0.640997 14.7709 0.640997C18.7462 0.640997 21.9175 1.646 24.2849 3.656C26.6969 5.62133 27.9029 8.078 27.9029 11.026C27.9029 13.304 27.2105 15.3363 25.8259 17.123C24.4859 18.865 23.0119 20.205 21.4039 21.143C19.7959 22.081 18.2995 23.1977 16.9149 24.493C15.5749 25.7883 14.9049 27.1507 14.9049 28.58C14.9049 29.8307 15.5079 30.925 16.7139 31.863L12.6269 33.605ZM16.5799 45.598C15.8652 46.3127 15.0165 46.67 14.0339 46.67C13.0512 46.67 12.1802 46.3127 11.4209 45.598C10.7062 44.8833 10.3489 44.0123 10.3489 42.985C10.3489 41.9577 10.7062 41.0867 11.4209 40.372C12.1802 39.6573 13.0512 39.3 14.0339 39.3C15.0165 39.3 15.8652 39.6573 16.5799 40.372C17.3392 41.0867 17.7189 41.9577 17.7189 42.985C17.7189 44.0123 17.3392 44.8833 16.5799 45.598Z" fill="#B9C0C4"/>
</svg>
